<svg width="100" height="100" viewBox="0 0 100 100" fill="none" xmlns="http://www.w3.org/2000/svg">
<path d="M81.1 51.3038C91.3482 51.3038 100 42.7252 100 32.4395C100 22.0788 91.4589 13.5752 81.1 13.5752C70.7768 13.5752 62.2357 22.0788 62.2357 32.4395C62.2357 42.8002 70.7768 51.3038 81.1 51.3038ZM30.1893 75.0305H73.525C74.9714 75.0305 76.2339 73.8431 76.2339 72.2448C76.2339 70.6502 74.9714 69.4609 73.525 69.4609H30.8214C28.7036 69.4609 27.4411 67.9752 27.0714 65.7109L26.4768 61.8127H73.5982C77.4607 61.8127 79.9857 60.1413 81.2857 57.1698L81.5821 56.3895C67.8429 56.3538 57.1482 45.7698 57.1482 32.4395C57.1482 31.3252 57.2226 30.2109 57.3714 29.0966H21.7232L21.0179 24.3823C20.5714 21.5216 19.6071 20.0734 15.8196 20.0734H2.74821C1.2625 20.0734 0 21.3734 0 22.8591C0 24.3806 1.2625 25.6806 2.74821 25.6806H15.2982L21.2411 66.4538C22.0196 71.727 24.8054 75.0323 30.1893 75.0323M81.1357 44.6948C79.8375 44.6948 78.6857 43.8038 78.6857 42.3913V34.7056H71.5929C70.9932 34.7027 70.4189 34.4633 69.9949 34.0392C69.5709 33.6152 69.3314 33.0409 69.3286 32.4413C69.3286 31.1788 70.3304 30.1377 71.5929 30.1377H78.6857V22.452C78.6857 21.0413 79.8375 20.1877 81.1375 20.1877C82.4357 20.1877 83.5482 21.0413 83.5482 22.452V30.1395H90.6429C91.9054 30.1395 92.9464 31.1788 92.9464 32.4413C92.9464 33.6663 91.9054 34.7056 90.6429 34.7056H83.55V42.3931C83.55 43.8038 82.4357 44.6966 81.1375 44.6966M27.1071 87.0627C27.0978 87.8553 27.247 88.6418 27.5461 89.3759C27.8451 90.1101 28.2879 90.777 28.8484 91.3375C29.4089 91.898 30.0758 92.3408 30.81 92.6398C31.5441 92.9389 32.3306 93.0881 33.1232 93.0788C33.9153 93.0857 34.7009 92.9347 35.434 92.6347C36.1672 92.3347 36.8332 91.8917 37.3933 91.3315C37.9533 90.7712 38.3961 90.1051 38.6959 89.3719C38.9957 88.6386 39.1464 87.853 39.1393 87.0609C39.1424 86.2699 38.9888 85.4862 38.6874 84.7549C38.386 84.0236 37.9428 83.3592 37.3833 82.8C36.8239 82.2409 36.1592 81.7981 35.4277 81.4971C34.6962 81.1962 33.9124 81.0431 33.1214 81.0466C32.3296 81.04 31.5444 81.191 30.8116 81.491C30.0788 81.791 29.413 82.2339 28.8532 82.7939C28.2934 83.3539 27.8506 84.0198 27.5509 84.7527C27.2511 85.4856 27.1002 86.2709 27.1071 87.0627ZM61.7893 87.0627C61.7893 90.4413 64.5 93.0788 67.8786 93.0788C68.6708 93.0859 69.4566 92.9351 70.1899 92.6352C70.9233 92.3354 71.5895 91.8923 72.1498 91.3321C72.71 90.7719 73.153 90.1056 73.4529 89.3723C73.7528 88.6389 73.9036 87.8532 73.8964 87.0609C73.8995 86.2699 73.7459 85.4862 73.4445 84.7549C73.1432 84.0236 72.6999 83.3592 72.1405 82.8C71.581 82.2409 70.9163 81.7981 70.1849 81.4971C69.4534 81.1962 68.6695 81.0431 67.8786 81.0466C64.5 81.0466 61.7893 83.7198 61.7893 87.0627Z" fill="black"/>
</svg>
