<svg width="200" height="200" viewBox="0 0 200 200" fill="none" xmlns="http://www.w3.org/2000/svg">
<g clip-path="url(#clip0_1180_631)">
<path d="M100 0C44.7719 0 0 44.7719 0 100C0 155.231 44.7719 200 100 200C155.231 200 200 155.231 200 100C200 44.7719 155.231 0 100 0ZM100 187.697C51.7531 187.697 12.5 148.247 12.5 99.9996C12.5 51.7527 51.7531 12.4996 100 12.4996C148.247 12.4996 187.5 51.7529 187.5 99.9996C187.5 148.246 148.247 187.697 100 187.697ZM143.75 93.75H106.25V56.25C106.25 52.8 103.45 50 100 50C96.55 50 93.75 52.8 93.75 56.25V93.75H56.25C52.8 93.75 50 96.55 50 100C50 103.45 52.8 106.25 56.25 106.25H93.75V143.75C93.75 147.2 96.55 150 100 150C103.45 150 106.25 147.2 106.25 143.75V106.25H143.75C147.2 106.25 150 103.45 150 100C150 96.55 147.2 93.75 143.75 93.75Z" fill="black"/>
</g>
<defs>
<clipPath id="clip0_1180_631">
<rect width="200" height="200" fill="white"/>
</clipPath>
</defs>
</svg>
